<?xml version="1.0" standalone="no"?>
<!DOCTYPE svg PUBLIC "-//W3C//DTD SVG 20010904//EN"
 "http://www.w3.org/TR/2001/REC-SVG-20010904/DTD/svg10.dtd">
<svg version="1.0" xmlns="http://www.w3.org/2000/svg"
 width="403.000000pt" height="403.000000pt" viewBox="0 0 403.000000 403.000000"
 preserveAspectRatio="xMidYMid meet">
<metadata>
Created by potrace 1.14, written by Peter Selinger 2001-2017
</metadata>
<g transform="translate(0.000000,403.000000) scale(0.100000,-0.100000)"
fill="#000000" stroke="none">
<path d="M1985 3872 c-3 -3 -22 -7 -43 -9 -55 -6 -147 -20 -147 -23 0 -1 -9
-4 -20 -6 -11 -3 -24 -6 -30 -8 -5 -2 -25 -7 -42 -11 -18 -4 -33 -11 -33 -15
0 -4 -8 -7 -17 -6 -17 0 -67 -20 -125 -50 -14 -8 -36 -14 -47 -14 -12 0 -21
-5 -21 -11 0 -6 -7 -9 -15 -5 -8 3 -15 1 -15 -4 0 -5 -11 -12 -25 -16 -14 -3
-25 -11 -25 -17 0 -6 -3 -8 -6 -4 -4 3 -31 -9 -60 -28 -30 -19 -54 -31 -54
-27 -1 4 -7 -4 -15 -18 -8 -14 -14 -22 -15 -17 0 7 -140 -132 -140 -139 0 -12
-35 -42 -43 -37 -6 3 -7 1 -4 -4 4 -6 0 -16 -8 -23 -8 -7 -15 -17 -15 -22 0
-5 -12 -25 -26 -44 -15 -19 -23 -34 -19 -34 5 0 2 -8 -6 -17 -31 -38 -94 -207
-83 -224 2 -4 0 -10 -6 -14 -6 -4 -8 -10 -5 -15 10 -16 -13 -47 -37 -53 -13
-4 -27 -16 -33 -29 -5 -13 -14 -23 -20 -24 -13 -1 -49 -16 -55 -23 -11 -13
-72 -41 -80 -36 -4 3 -11 -2 -14 -11 -3 -8 -10 -12 -16 -9 -5 3 -10 1 -10 -4
0 -6 -4 -10 -8 -9 -4 2 -20 -9 -35 -24 -15 -16 -32 -28 -37 -28 -14 0 -160
-151 -155 -160 3 -4 -2 -10 -10 -14 -8 -3 -15 -13 -15 -23 0 -25 -14 -44 -34
-47 -15 -2 -80 -63 -81 -76 0 -3 -17 -30 -37 -62 -20 -31 -41 -72 -47 -92 -5
-20 -21 -50 -35 -67 -14 -17 -26 -38 -27 -47 0 -9 -2 -45 -3 -79 -1 -43 -7
-69 -18 -83 -18 -21 -25 -113 -13 -160 4 -14 8 -54 10 -90 2 -65 20 -123 46
-151 8 -8 25 -37 39 -64 32 -67 79 -137 103 -154 10 -7 37 -31 60 -52 23 -21
57 -46 76 -55 19 -9 50 -34 70 -55 20 -21 43 -39 51 -41 16 -3 40 -23 40 -33
0 -12 28 -35 47 -38 23 -3 83 -39 83 -49 0 -4 7 -8 15 -8 8 0 15 -4 15 -8 0
-8 71 -45 92 -48 4 -1 13 -2 18 -3 7 -1 7 -7 0 -21 -6 -11 -8 -20 -4 -20 3 0
1 -6 -5 -13 -6 -8 -8 -17 -4 -20 3 -4 2 -7 -3 -7 -9 0 -17 -50 -17 -110 1 -45
3 -51 16 -44 9 5 9 4 0 -6 -9 -10 -9 -16 0 -26 14 -15 65 -76 102 -120 14 -18
25 -37 25 -43 0 -6 5 -11 12 -11 6 0 8 -3 5 -7 -4 -3 -1 -13 7 -22 8 -9 15
-19 16 -23 0 -4 9 -28 20 -53 18 -43 22 -84 9 -95 -5 -4 -62 -147 -64 -160 0
-3 -8 -21 -17 -40 -16 -35 -26 -64 -29 -78 0 -4 -4 -11 -8 -17 -5 -5 -11 -22
-15 -37 l-6 -28 1186 0 c1053 0 1185 2 1174 15 -7 8 -9 15 -6 15 4 0 2 9 -4
19 -7 14 -6 21 3 24 9 4 9 6 -1 6 -7 1 -10 6 -7 11 3 6 0 10 -7 10 -9 0 -10 2
-1 8 8 5 6 18 -8 46 -10 22 -20 46 -21 55 -2 9 -7 19 -11 22 -4 3 -9 17 -11
30 -1 14 -6 30 -10 37 -4 7 -4 12 1 12 4 0 0 5 -9 11 -10 5 -18 14 -18 19 0 5
-12 22 -27 37 -14 15 -23 21 -19 13 5 -10 3 -9 -7 2 -7 9 -37 29 -65 43 -28
14 -54 30 -57 35 -3 5 -14 7 -25 5 -10 -2 -24 3 -31 11 -8 10 -15 11 -24 4 -9
-8 -15 -8 -20 0 -3 6 -11 7 -17 4 -7 -4 -8 -2 -4 5 4 6 5 19 2 29 -7 22 -62
56 -70 43 -4 -6 -18 -6 -36 -1 -17 5 -30 6 -30 3 0 -3 -12 6 -26 21 -15 14
-29 27 -33 27 -28 6 -51 5 -51 -3 0 -5 -9 -7 -19 -3 -13 4 -25 -2 -37 -19 -21
-28 -41 -23 -49 10 -2 10 -7 30 -11 43 -5 18 -4 22 5 16 10 -6 11 -3 3 12 -13
23 3 106 24 123 11 10 16 7 24 -14 10 -27 10 -27 31 -7 25 23 64 32 80 17 8
-7 10 -7 6 0 -3 6 9 17 28 26 19 8 32 11 28 5 -4 -6 -1 -7 8 -1 8 4 23 9 34
11 55 6 80 12 78 19 -1 5 8 10 20 11 29 3 39 6 127 33 66 20 107 28 173 33 9
1 17 5 17 10 0 4 5 5 10 2 6 -4 9 -1 8 6 -2 7 2 13 9 14 7 0 24 15 39 33 15
17 34 32 42 32 8 0 40 15 71 32 54 31 66 36 103 40 9 1 16 7 15 13 -1 5 4 9
11 7 20 -4 70 26 110 67 20 21 52 44 70 52 17 8 32 17 32 21 0 5 3 7 8 7 19
-3 33 2 27 11 -3 6 -1 10 4 10 6 0 10 3 9 8 -2 4 1 7 6 7 5 0 13 10 17 23 5
13 13 21 19 17 5 -3 12 6 16 20 3 14 10 25 15 25 5 0 9 7 9 15 0 7 8 19 18 24
9 6 14 11 10 11 -4 0 4 21 17 46 14 26 25 53 25 60 0 8 4 14 9 14 5 0 12 12
16 28 5 15 9 32 11 37 4 13 13 49 19 78 3 12 7 44 10 71 2 26 9 54 16 62 12
14 10 72 -3 90 -10 14 -7 73 4 80 12 8 -8 84 -23 84 -5 0 -9 7 -9 15 0 8 -3
15 -7 15 -5 0 -9 23 -11 52 -2 29 -8 58 -14 65 -6 7 -7 13 -2 13 4 0 3 5 -3
11 -6 6 -9 18 -6 25 3 8 0 14 -6 14 -6 0 -11 5 -11 11 0 6 -13 28 -30 49 -16
20 -27 40 -24 43 3 3 -4 8 -15 12 -11 3 -23 16 -26 28 -16 54 -50 115 -84 147
-19 19 -35 38 -33 43 1 4 -2 6 -6 5 -5 -2 -26 14 -46 35 -21 20 -43 38 -49 39
-7 0 -16 2 -22 2 -20 3 -34 17 -29 29 2 7 -20 26 -51 45 -30 18 -55 36 -56 40
0 4 -2 22 -4 41 -2 18 -9 45 -15 60 -6 14 -11 41 -13 59 -1 17 -5 32 -9 32 -5
0 -8 9 -8 20 0 11 -5 20 -11 20 -5 0 -7 5 -4 10 3 6 2 10 -3 10 -9 0 -11 8
-15 54 -1 13 -5 22 -9 20 -4 -2 -10 6 -14 18 -5 13 -9 25 -10 28 -1 3 -5 15
-9 28 -4 12 -11 22 -16 22 -5 0 -9 7 -9 15 0 8 -3 15 -7 15 -5 0 -19 17 -33
38 -13 20 -43 56 -66 79 -24 22 -39 45 -36 49 4 4 2 4 -4 1 -14 -8 -37 17 -26
27 4 4 2 7 -3 6 -21 -5 -29 1 -15 10 13 9 13 10 -1 10 -8 0 -49 32 -89 70 -40
39 -78 70 -82 70 -5 0 -6 5 -3 10 4 6 3 9 -2 8 -4 -1 -48 25 -98 57 -98 65
-176 105 -205 105 -11 0 -21 4 -24 8 -3 5 -18 9 -34 10 -17 0 -47 5 -68 10
-22 6 -46 10 -54 10 -26 0 -103 12 -111 18 -5 3 -9 1 -9 -3 0 -5 -17 -7 -37
-5 -21 2 -50 3 -65 3 -29 -1 -48 -1 -73 -1 -8 0 -21 0 -27 -1 -7 0 -25 2 -40
4 -15 2 -30 2 -33 -1z m115 -1074 c0 -4 -7 -8 -15 -8 -8 0 -15 4 -15 8 0 5 7
9 15 9 8 0 15 -4 15 -9z m-345 -2056 c31 -3 75 -43 75 -68 0 -25 21 -15 35 19
8 17 15 25 16 17 5 -47 3 -86 -6 -92 -6 -5 -5 -8 3 -8 10 0 10 -5 1 -21 -11
-22 -11 -22 -33 5 -11 15 -30 28 -41 30 -21 3 -46 -14 -38 -26 4 -8 -17 -11
-54 -8 -15 1 -23 -4 -23 -14 0 -20 -24 -32 -80 -41 -25 -4 -53 -11 -62 -17
-12 -5 -18 -5 -18 2 0 5 5 10 10 10 6 0 15 12 21 27 8 22 12 24 19 13 8 -12
10 -10 10 7 0 12 4 25 10 28 5 3 26 34 46 68 42 71 67 99 74 83 3 -6 19 -12
35 -14z"/>
</g>
</svg>
